<svg t="1639624856027" class="icon" viewBox="0 0 1024 1024" version="1.1" xmlns="http://www.w3.org/2000/svg" p-id="14342" width="200" height="200"><path d="M512 1C229.8 1 1 229.8 1 512s228.8 511 511 511 511-228.8 511-511S794.8 1 512 1z m298.3 456.3c-23.2 37.4-60 65.4-104 78.4-11.3 3.6-20.8 4.8-29.7 4.8-23.2 0-41-17.8-41-41s17.8-41 41-41c1.2 0 2.4 0 4.2-0.6h0.6c26.1-7.1 46.9-22.6 58.8-42.2 7.7-12.5 11.3-26.1 11.3-41 0-48.1-44.6-86.8-99.2-86.8-19 0-37.4 4.8-54.1 14.3-28.5 16-45.2 43.4-45.2 73.1v276.9c0 59.4-32.7 112.9-86.8 143.8-28.5 16-61.2 25-94.5 25C271.4 821 190 744.9 190 651.6c0-28.5 8.3-57 23.8-83.2C237 531 273.8 503 317.2 490c12.5-3.6 21.4-4.8 30.3-4.8 23.2 0 41 17.8 41 41s-17.8 41-41 41c-1.2 0-2.4 0-4.2 0.6-26.7 8.3-47.5 23.2-59.4 42.8-7.7 12.5-11.3 26.1-11.3 41 0 48.1 44.6 86.7 99.8 86.7 19 0 37.4-4.8 54.1-14.3 28.5-16 45.2-43.4 45.2-73.1V374.2c0-59.4 32.7-112.9 86.8-143.8 27.3-16.6 60-25.6 93.9-25.6 100.4 0 181.8 76.1 181.8 169.3-0.2 28-8.5 57.1-23.9 83.2z m0 0" fill="#2BA245" p-id="14343"></path></svg>