<svg t="1594452832532" class="icon" viewBox="0 0 1024 1024" version="1.1" xmlns="http://www.w3.org/2000/svg" p-id="978" width="200" height="200"><path d="M38.56886067 38.56886067h946.86227866v946.86227866H38.56886067V38.56886067m248.81436505 791.1560377c21.04138438 44.71294135 62.5981169 81.53536248 133.61278901 81.53536246 78.9051899 0 133.08675402-42.08276753 133.08675281-134.13882281v-304.04799797h-89.42588147V775.01729921c0 45.23897512-18.41121055 56.81173672-47.34311392 56.81173673-30.51000717 0-43.13483754-21.04138438-57.33777176-45.76501015l-72.59277467 43.66087258m314.56869076-9.4686228c26.30172955 51.55139031 79.4312249 91.00398527 162.54469117 91.00398526 84.16553629 0 147.28968821-43.66087133 147.2896882-124.14416501 0-74.17087849-42.60880254-107.31105826-118.35778483-139.92520422l-22.09345319-9.46862279c-38.40052617-16.307073-54.70759791-27.35379957-54.70759912-53.65552911 0-21.56741817 16.307073-38.40052617 42.60880252-38.40052493 25.24966076 0 42.08276753 11.04672657 57.33777173 38.40052493l68.91053209-45.76501015c-28.93190337-50.49932154-69.96260211-69.96260211-126.24830382-69.96260088-79.4312249 0-130.45658021 50.49932154-130.45658019 117.30571482 0 72.5927747 42.60880254 106.78502324 106.78502324 134.13882281l22.09345315 9.46862278c41.03069875 17.88517679 65.22829073 28.93190337 65.22829072 59.44191054 0 25.24966076-23.67155698 43.66087133-60.49397931 43.66087133-43.66087133 0-68.91053209-22.61948818-87.84777766-54.18156414l-72.5927747 42.08276876z" fill="#FFCA28" p-id="979"></path></svg>